HIERARCHY
ROOT joint_Root
{
	OFFSET 0.0 0.0 0.0
	CHANNELS 6 Xposition Yposition Zposition Zrotation Xrotation Yrotation 
	JOINT Hips
	{
		OFFSET 4.5925 91.4895 -427.239
		CHANNELS 6 Xposition Yposition Zposition Zrotation Xrotation Yrotation 
		JOINT Spine
		{
			OFFSET 15.7357 0.0 0.0
			CHANNELS 6 Xposition Yposition Zposition Zrotation Xrotation Yrotation 
			JOINT Chest
			{
				OFFSET 8.98455 -0.406207 0.0
				CHANNELS 6 Xposition Yposition Zposition Zrotation Xrotation Yrotation 
				JOINT Neck
				{
					OFFSET 16.3773 0.0 0.0
					CHANNELS 6 Xposition Yposition Zposition Zrotation Xrotation Yrotation 
					JOINT Head
					{
						OFFSET 6.45672 0.0 0.0
						CHANNELS 6 Xposition Yposition Zposition Zrotation Xrotation Yrotation 
						End Site
						{
							OFFSET 0.0 0.0 0.0
						}
					}
				}
				JOINT Shoulder_L
				{
					OFFSET 12.9942 -0.242716 4.98039
					CHANNELS 6 Xposition Yposition Zposition Zrotation Xrotation Yrotation 
					JOINT UpperArm_L
					{
						OFFSET 5.34809 0.0 0.0
						CHANNELS 6 Xposition Yposition Zposition Zrotation Xrotation Yrotation 
						JOINT LowerArm_L
						{
							OFFSET 24.3286 1.87007e-05 0.0
							CHANNELS 6 Xposition Yposition Zposition Zrotation Xrotation Yrotation 
							JOINT Hand_L
							{
								OFFSET 22.2916 0.0 0.0
								CHANNELS 6 Xposition Yposition Zposition Zrotation Xrotation Yrotation 
								End Site
								{
									OFFSET 0.0 0.0 0.0
								}
							}
						}
					}
				}
				JOINT Shoulder_R
				{
					OFFSET 12.9945 -0.242716 -4.98039
					CHANNELS 6 Xposition Yposition Zposition Zrotation Xrotation Yrotation 
					JOINT UpperArm_R
					{
						OFFSET -5.34813 0.0 0.0
						CHANNELS 6 Xposition Yposition Zposition Zrotation Xrotation Yrotation 
						JOINT LowerArm_R
						{
							OFFSET -24.3289 0.000322201 0.0
							CHANNELS 6 Xposition Yposition Zposition Zrotation Xrotation Yrotation 
							JOINT Hand_R
							{
								OFFSET -22.2915 -0.000108084 0.0
								CHANNELS 6 Xposition Yposition Zposition Zrotation Xrotation Yrotation 
								End Site
								{
									OFFSET 0.0 0.0 0.0
								}
							}
						}
					}
				}
			}
		}
		JOINT UpperLeg_L
		{
			OFFSET -2.19248 -6.46944 0.0
			CHANNELS 6 Xposition Yposition Zposition Zrotation Xrotation Yrotation 
			JOINT LowerLeg_L
			{
				OFFSET 39.0811 0.0 -1.23785e-05
				CHANNELS 6 Xposition Yposition Zposition Zrotation Xrotation Yrotation 
				JOINT Foot_L
				{
					OFFSET 40.9854 0.0 -1.26872e-05
					CHANNELS 6 Xposition Yposition Zposition Zrotation Xrotation Yrotation 
					JOINT Toes_L
					{
						OFFSET 11.7543 0.0 0.0
						CHANNELS 6 Xposition Yposition Zposition Zrotation Xrotation Yrotation 
						End Site
						{
							OFFSET 0.0 0.0 0.0
						}
					}
				}
			}
		}
		JOINT UpperLeg_R
		{
			OFFSET -2.19251 6.46944 0.0
			CHANNELS 6 Xposition Yposition Zposition Zrotation Xrotation Yrotation 
			JOINT LowerLeg_R
			{
				OFFSET -39.0811 -0.00228153 -0.0401928
				CHANNELS 6 Xposition Yposition Zposition Zrotation Xrotation Yrotation 
				JOINT Foot_R
				{
					OFFSET -40.9854 0.0 0.0
					CHANNELS 6 Xposition Yposition Zposition Zrotation Xrotation Yrotation 
					JOINT Toes_R
					{
						OFFSET -11.7543 0.0 0.0
						CHANNELS 6 Xposition Yposition Zposition Zrotation Xrotation Yrotation 
						End Site
						{
							OFFSET 0.0 0.0 0.0
						}
					}
				}
			}
		}
	}
}
MOTION
Frames:	6
Frame Time:	0.0333333
0.000000 0.000000 0.000000 0.000000 0.000000 -0.000000 -3.637630 94.982200 24.224500 -86.153500 -10.335600 165.375000 15.735700 0.000005 -0.000001 30.789200 80.422400 -27.712500 8.984550 -0.406207 -0.000000 2.596360 -16.582300 6.559160 16.377300 -0.000001 -0.000001 0.998739 -1.077160 1.715680 6.456720 -0.000001 -0.000000 -2.342190 6.927740 4.114980 12.994200 -0.242716 4.980390 -84.977300 -18.548700 -74.556600 5.348090 -0.000007 -0.000001 -57.238000 26.566800 -48.543100 24.328600 0.000019 0.000005 6.013750 -3.714800 -121.591000 22.291600 -0.000001 0.000005 -4.512330 5.382990 -2.392740 12.994500 -0.242716 -4.980390 94.147200 -9.824790 -66.978800 -5.348130 -0.000001 -0.000004 -66.147700 31.798000 38.839900 -24.328900 0.000322 -0.000009 1.248940 0.463068 -69.591900 -22.291500 -0.000108 -0.000004 2.516830 5.602550 -11.492600 -2.192480 -6.469440 -0.000000 -164.285000 -16.478500 11.076300 39.081100 -0.000007 -0.000012 0.064930 -0.210394 17.150900 40.985400 -0.000006 -0.000013 -10.326100 12.083000 -26.192200 11.754300 -0.000000 0.000003 -0.004200 -0.053512 -18.753600 -2.192510 6.469440 -0.000001 -173.716000 -0.773969 125.896000 -39.081100 -0.002282 -0.040193 0.116672 -0.044388 68.647700 -40.985400 0.000008 0.000006 7.713530 -2.397990 -60.186000 -11.754300 -0.000006 -0.000006 -0.011695 -0.115898 -21.297400
0.000000 0.000000 0.000000 0.000000 0.000000 -0.000000 -3.964910 96.138300 12.553400 -88.119200 -10.792900 165.045000 15.735700 0.000005 -0.000001 26.448800 79.789700 -23.799300 8.984550 -0.406207 -0.000000 1.863640 -18.410300 5.631460 16.377300 -0.000001 -0.000001 1.896290 -0.619991 2.011860 6.456720 -0.000001 -0.000000 -1.811440 8.416980 3.621930 12.994200 -0.242716 4.980390 -84.123600 -19.508700 -72.870600 5.348090 -0.000007 -0.000001 -52.736600 28.856300 -51.262400 24.328600 0.000019 0.000005 7.307820 -4.630310 -122.190000 22.291600 -0.000001 0.000005 -4.889990 5.378970 -2.266070 12.994500 -0.242716 -4.980390 95.206000 -11.938300 -66.228300 -5.348130 -0.000001 -0.000004 -68.607300 31.541400 42.425500 -24.328900 0.000322 -0.000009 3.311940 0.792770 -76.560300 -22.291500 -0.000108 -0.000004 1.782800 5.588320 -10.663600 -2.192480 -6.469440 -0.000000 -162.115000 -17.844600 13.050700 39.081100 -0.000007 -0.000012 0.123069 -0.267462 24.708900 40.985400 -0.000006 -0.000013 -7.748280 8.426410 -29.678000 11.754300 -0.000000 0.000003 -0.004604 -0.057592 -18.919800 -2.192510 6.469440 -0.000001 -175.786000 1.301040 131.185000 -39.081100 -0.002282 -0.040193 0.064611 -0.060568 45.366300 -40.985400 0.000008 0.000006 5.770940 3.512880 -64.807500 -11.754300 -0.000006 -0.000006 -0.014143 -0.132354 -21.971800
0.000000 0.000000 0.000000 0.000000 0.000000 -0.000000 -4.333210 96.002700 0.468435 -91.331200 -12.492300 166.166000 15.735700 0.000005 -0.000001 25.147500 78.983200 -23.324500 8.984550 -0.406207 -0.000000 2.046550 -20.024600 4.032530 16.377300 -0.000001 -0.000001 1.974100 -1.213330 1.966320 6.456720 -0.000001 -0.000000 -1.441890 8.494180 3.620750 12.994200 -0.242716 4.980390 -84.251200 -18.643800 -72.520000 5.348090 -0.000007 -0.000001 -49.829100 32.160500 -52.647900 24.328600 0.000019 0.000005 7.483630 -4.638080 -121.616000 22.291600 -0.000001 0.000005 -4.824040 5.376060 -2.174820 12.994500 -0.242716 -4.980390 95.090900 -11.059200 -65.087300 -5.348130 -0.000001 -0.000004 -68.495800 30.548600 44.252800 -24.328900 0.000322 -0.000009 3.110740 0.449370 -81.793700 -22.291500 -0.000108 -0.000004 1.131320 5.572990 -9.841170 -2.192480 -6.469440 -0.000000 -162.855000 -12.196100 15.039700 39.081100 -0.000007 -0.000012 0.178859 -0.264441 34.073100 40.985400 -0.000006 -0.000013 -4.365130 1.043050 -31.951900 11.754300 -0.000000 0.000003 -0.004495 -0.056497 -18.875200 -2.192510 6.469440 -0.000001 -176.820000 7.914960 138.701000 -39.081100 -0.002282 -0.040193 -0.014738 0.043204 22.679900 -40.985400 0.000008 0.000006 0.495683 12.384200 -67.592400 -11.754300 -0.000006 -0.000006 -0.017007 -0.150105 -22.700800
0.000000 0.000000 0.000000 0.000000 0.000000 -0.000000 -4.642810 94.861100 -11.975000 -93.875300 -13.858500 167.522000 15.735700 0.000005 -0.000001 26.390200 78.766900 -25.097700 8.984550 -0.406207 -0.000000 2.600460 -20.167800 3.065440 16.377300 -0.000001 -0.000001 2.036420 -2.518020 2.086630 6.456720 -0.000001 -0.000000 -1.568130 7.460460 3.083640 12.994200 -0.242716 4.980390 -85.228700 -16.361300 -73.496100 5.348090 -0.000007 -0.000001 -49.923900 36.441100 -51.397700 24.328600 0.000019 0.000005 8.721560 -5.009750 -119.652000 22.291600 -0.000001 0.000005 -4.909180 5.373960 -2.109460 12.994500 -0.242716 -4.980390 94.241200 -8.807190 -64.155400 -5.348130 -0.000001 -0.000004 -67.457300 28.142000 42.879600 -24.328900 0.000322 -0.000009 3.727580 0.368442 -84.365400 -22.291500 -0.000108 -0.000004 1.123020 5.562130 -9.292900 -2.192480 -6.469440 -0.000000 -164.526000 -5.903120 16.893300 39.081100 -0.000007 -0.000012 0.286114 -0.296419 43.986600 40.985400 -0.000006 -0.000013 0.302811 -1.349740 -31.412000 11.754300 -0.000000 0.000003 -0.003513 -0.046281 -18.459200 -2.192510 6.469440 -0.000001 -172.894000 19.246400 141.844000 -39.081100 -0.002282 -0.040193 -0.025535 0.151955 10.758400 -40.985400 0.000008 0.000006 -1.622270 21.344000 -72.079900 -11.754300 -0.000006 -0.000006 -0.019548 -0.164771 -23.304200
0.000000 0.000000 0.000000 0.000000 0.000000 -0.000000 -4.768710 92.692300 -24.388500 -94.431700 -14.123200 168.683000 15.735700 0.000005 -0.000001 29.832600 79.319300 -28.408000 8.984550 -0.406207 -0.000000 3.244410 -18.568100 3.395920 16.377300 -0.000001 -0.000001 2.159590 -3.733290 2.264260 6.456720 -0.000001 -0.000000 -2.117770 5.717800 2.387490 12.994200 -0.242716 4.980390 -86.535300 -12.594700 -74.482500 5.348090 -0.000007 -0.000001 -51.690400 40.641300 -48.213900 24.328600 0.000019 0.000005 10.455800 -5.203730 -116.176000 22.291600 -0.000001 0.000005 -4.795240 5.380620 -2.316580 12.994500 -0.242716 -4.980390 92.650800 -5.517920 -64.291600 -5.348130 -0.000001 -0.000004 -66.059600 24.837900 38.981000 -24.328900 0.000322 -0.000009 5.143050 0.458633 -84.922000 -22.291500 -0.000108 -0.000004 2.078220 5.562890 -9.326550 -2.192480 -6.469440 -0.000000 -164.614000 -1.603080 16.288900 39.081100 -0.000007 -0.000012 0.449427 -0.284675 57.649400 40.985400 -0.000006 -0.000013 -1.835550 -0.670205 -28.813200 11.754300 -0.000000 0.000003 -0.002438 -0.034075 -17.962400 -2.192510 6.469440 -0.000001 -169.279000 25.877500 140.760000 -39.081100 -0.002282 -0.040193 -0.041754 0.195011 13.018300 -40.985400 0.000008 0.000006 -5.716600 18.703600 -74.022300 -11.754300 -0.000006 -0.000006 -0.019829 -0.166338 -23.368700
0.000000 0.000000 0.000000 0.000000 0.000000 -0.000000 -5.080820 89.501700 -36.479300 -94.401700 -13.368200 170.299000 15.735700 0.000005 -0.000001 35.614800 80.129100 -34.052800 8.984550 -0.406207 -0.000000 4.086950 -16.076800 3.713840 16.377300 -0.000001 -0.000001 1.571690 -4.658490 2.536810 6.456720 -0.000001 -0.000000 -2.213460 3.889380 1.670170 12.994200 -0.242716 4.980390 -87.876100 -7.565790 -74.262500 5.348090 -0.000007 -0.000001 -53.492200 43.637500 -43.485900 24.328600 0.000019 0.000005 12.341200 -4.946210 -111.514000 22.291600 -0.000001 0.000005 -4.059520 5.402120 -3.000330 12.994500 -0.242716 -4.980390 90.569500 -1.262180 -65.792100 -5.348130 -0.000001 -0.000004 -64.510700 22.140100 33.215300 -24.328900 0.000322 -0.000009 4.256410 0.502180 -83.280200 -22.291500 -0.000108 -0.000004 4.795200 5.580910 -10.224200 -2.192480 -6.469440 -0.000000 -166.178000 1.940660 13.497400 39.081100 -0.000007 -0.000012 0.632601 -0.164494 75.424200 40.985400 -0.000006 -0.000013 -5.040740 1.415740 -24.649500 11.754300 -0.000000 0.000003 -0.002609 -0.036097 -18.044700 -2.192510 6.469440 -0.000001 -169.312000 25.118200 138.869000 -39.081100 -0.002282 -0.040193 0.295714 -0.582389 26.660800 -40.985400 0.000008 0.000006 8.123200 6.246920 -78.908300 -11.754300 -0.000006 -0.000006 -0.021283 -0.174293 -23.696500
